# xmcd
#
# Track frame offsets: 
#        150
#        19412
#        39527
#        61564
#        82155
#        101004
#        122535
#        142490
#        164985
#        186902
#        207975
#
# Disc length: 3036 seconds
#
# Revision: 0
# Processed by: cddbd v1.5.1PL0 Copyright (c) Steve Scherf et al.
# Submitted via: ExactAudioCopy v0.95a5
#
DISCID=a70bda0b
DTITLE=Hot Shot - Lee Shot Williams
DYEAR=1996
DGENRE=Blues
TTITLE0=I'll  Take The Risk
TTITLE1=Make Me Holler
TTITLE2=Somebody Took My Girl And Gone
TTITLE3=Times Are Tough
TTITLE4=Boogie Down On The Weekend
TTITLE5=Lovin' A Different Woman Ain't The Same
TTITLE6=I Like Your Style
TTITLE7=You Made A Believer Out Of Me
TTITLE8=You've Got To Try Me
TTITLE9=Down In The Hood
TTITLE10=I'll Take The Risk (Remix)
EXTD=
EXTT0=
EXTT1=
EXTT2=
EXTT3=
EXTT4=
EXTT5=
EXTT6=
EXTT7=
EXTT8=
EXTT9=
EXTT10=
PLAYORDER=
